<svg width="105" height="27" viewBox="0 0 105 27" fill="none" xmlns="http://www.w3.org/2000/svg">
    <path d="M4.1877 0.975098V26.3084H0.833984V0.975098H4.1877Z" fill="white"/>
    <path d="M29.7489 0.975098V26.3084H26.3778L13.6407 6.76905V26.3084H10.287V0.975098H13.6407L26.43 20.5667V0.975098H29.7489Z" fill="white"/>
    <path d="M43.8589 22.4632L51.3135 0.975098H54.9453L45.5792 26.3084H42.99L43.8589 22.4632ZM36.8908 0.975098L44.2759 22.4632L45.1969 26.3084H42.6077L33.259 0.975098H36.8908Z" fill="white"/>
    <path d="M61.9481 0.975098V26.3084H58.5944V0.975098H61.9481Z" fill="white"/>
    <path d="M76.8747 0.975098V26.3084H73.5732V0.975098H76.8747ZM85.0071 0.975098V3.72418H65.4582V0.975098H85.0071Z" fill="white"/>
    <path d="M104.834 23.5767V26.3084H91.4365V23.5767H104.834ZM92.1142 0.975098V26.3084H88.7605V0.975098H92.1142ZM103.062 11.867V14.5987H91.4365V11.867H103.062ZM104.66 0.975098V3.72418H91.4365V0.975098H104.66Z" fill="white"/>
</svg>
