<svg width="194" height="194" fill="none" xmlns="http://www.w3.org/2000/svg"><g clip-path="url(#a)"><path d="m37.622 35.934.218-.196c20.008-18.017 46.584-18.83 65.945.565 10.091 10.108 28.009 8.174 40.828 11.83 44.201 12.606 36.559 72.577 14.725 101.567-19.702 26.16-62.393 32.071-91.075 19.199-25.204-11.31-42.951-36.578-49.267-62.999a92.935 92.935 0 0 1-1.552-8.02c-3.322-22.492 3.059-46.378 20.178-61.946z" fill="#92E3A9"/><path opacity=".7" d="m37.622 35.934.218-.196c20.008-18.017 46.584-18.83 65.945.565 10.091 10.108 28.009 8.174 40.828 11.83 44.201 12.606 36.559 72.577 14.725 101.567-19.702 26.16-62.393 32.071-91.075 19.199-25.204-11.31-42.951-36.578-49.267-62.999a92.935 92.935 0 0 1-1.552-8.02c-3.322-22.492 3.059-46.378 20.178-61.946z" fill="#fff"/><path d="M108.168 155.332c-1.92 9.601-11.26 15.827-20.862 13.906-6.865-1.373-12.005-6.541-13.674-12.885M107.928 147.322c.51 1.924.701 3.958.523 6.026M79.379 138.285c3.982-3.342 9.388-4.914 14.882-3.815 5.807 1.161 10.38 5.038 12.662 10.044M74.459 135.489l-.493-1.322 4.674 3.556M73.4 148.376a17.668 17.668 0 0 1 3.197-7.16l-1.557-4.173M73.067 152.604a17.63 17.63 0 0 1 .043-2.159" stroke="#263238" stroke-miterlimit="10" stroke-linecap="round" stroke-linejoin="round"/><path d="M91.625 143.021a8.922 8.922 0 1 1-2.076 17.724 8.925 8.925 0 0 1-1.077-17.533" stroke="#263238" stroke-miterlimit="10" stroke-linecap="round" stroke-linejoin="round"/><path d="M89.437 161.7c-5.422-.635-9.303-5.545-8.668-10.967M100.047 154.752a9.896 9.896 0 0 1-7.528 6.827M81.4 148.23c1.61-4.059 5.794-6.697 10.337-6.165 5.421.635 9.302 5.546 8.667 10.968" stroke="#263238" stroke-miterlimit="10" stroke-linecap="round" stroke-linejoin="round"/><path d="m96.325 148.018.107-.128M94.833 149.804l.743-.89M85.247 151.555l4.065 4.857 4.87-5.829" stroke="#263238" stroke-width="2" stroke-miterlimit="10" stroke-linecap="round" stroke-linejoin="round"/><path d="M55.394 128.436c-.126 5.053 2.375 4.645 2.375 4.645.155-.418.512-.993.943-1.661 1.309-2.014 3.314-4.838 2.561-6.511-.341-.759-.98-1.818-1.672-2.884-1.341-2.055-2.881-4.133-2.881-4.133l6.678-1.106s4.756 1.967 8.51 2.194c.098.007.196.01.29.01 3.429.066 2.875-2.622 2.875-3.488 0-.37-.926-1.047-2.01-1.714-1.547-.949-3.422-1.881-3.422-1.881l1.015-2.103c.705.126 1.29.151 1.774.095 2.599-.285 2.242-2.843 1.821-3.959-.12-.32-.718-.803-1.562-1.36-2.672-1.762-7.789-4.215-7.789-4.215h-7.504l-7.383 20.155c-.001.001 5.505 2.863 5.381 7.916z" fill="#fff"/><path opacity=".4" d="M55.394 128.436c-.126 5.053 2.375 4.645 2.375 4.645.155-.418.512-.993.943-1.661 1.309-2.014 3.314-4.838 2.561-6.511-.341-.759-.98-1.818-1.672-2.884-1.341-2.055-2.881-4.133-2.881-4.133l6.678-1.106s4.756 1.967 8.51 2.194c.098.007.196.01.29.01 3.429.066 2.875-2.622 2.875-3.488 0-.37-.926-1.047-2.01-1.714-1.547-.949-3.422-1.881-3.422-1.881l1.015-2.103c.705.126 1.29.151 1.774.095 2.599-.285 2.242-2.843 1.821-3.959-.12-.32-.718-.803-1.562-1.36-2.672-1.762-7.789-4.215-7.789-4.215h-7.504l-7.383 20.155c-.001.001 5.505 2.863 5.381 7.916z" fill="#92E3A9"/><path opacity=".4" d="M55.394 128.436c-.126 5.053 2.375 4.645 2.375 4.645.155-.418.512-.993.943-1.661a7.25 7.25 0 0 1-.136-1.47c.032-1.73 1.451-5.041 1.451-5.041l-1.451-2.295c.212-.218.575-.415 1.025-.589-1.341-2.055-2.881-4.133-2.881-4.133l6.678-1.106s4.756 1.967 8.51 2.194c.098.007.196.01.29.01-.217-1.882.526-4.254.864-5.202-1.546-.949-3.421-1.882-3.421-1.882l1.015-2.103c.705.127 1.29.152 1.774.095-.342-1.641-.016-3.918.259-5.318-2.672-1.762-7.789-4.215-7.789-4.215h-7.504l-7.383 20.155c-.001.001 5.505 2.863 5.381 7.916z" fill="#92E3A9"/><path d="M57.394 100.365H64.9s8.85 4.246 9.35 5.574c.5 1.327.908 4.675-3.596 3.866l-1.014 2.101s5.432 2.701 5.432 3.595c0 .895.587 3.704-3.166 3.479-3.753-.226-8.507-2.195-8.507-2.195l-6.679 1.107s3.552 4.791 4.553 7.017c1 2.227-2.878 6.49-3.503 8.174 0 0-2.502.405-2.377-4.647.125-5.053-5.38-7.916-5.38-7.916" stroke="#263238" stroke-miterlimit="10" stroke-linecap="round" stroke-linejoin="round"/><path d="M59.173 124.008s-1.881-1.053-2.905.901" stroke="#263238" stroke-miterlimit="10" stroke-linecap="round" stroke-linejoin="round"/><path d="M82.163 126.061H44.975a3.594 3.594 0 0 1-3.593-3.594V52.748a3.594 3.594 0 0 1 3.593-3.594h37.188a3.594 3.594 0 0 1 3.594 3.594v69.719a3.594 3.594 0 0 1-3.594 3.594z" fill="#92E3A9" stroke="#263238" stroke-miterlimit="10" stroke-linecap="round" stroke-linejoin="round"/><path d="M84.38 52.274v70.865c0 .886-.717 1.603-1.602 1.603H44.36a1.603 1.603 0 0 1-1.603-1.603V52.274c0-.885.718-1.603 1.603-1.603h8.536c.562 0 1.065.35 1.261.876l.363.974c.196.526.699.876 1.26.876h15.577c.562 0 1.065-.35 1.26-.876l.364-.974a1.345 1.345 0 0 1 1.26-.876h8.537c.885 0 1.603.718 1.603 1.603z" fill="#263238"/><path d="M69.197 107.241H57.941a3.815 3.815 0 1 1 0-7.63h11.255a3.815 3.815 0 1 1 0 7.63z" fill="#92E3A9" stroke="#263238" stroke-miterlimit="10" stroke-linecap="round" stroke-linejoin="round"/><path d="M59.895 51.47a.663.663 0 1 1-1.327 0 .663.663 0 0 1 1.327 0zM68.57 51.47a.416.416 0 1 1-.831 0 .416.416 0 0 1 .831 0zM66.208 51.704h-4.972a.235.235 0 1 1 0-.469h4.972a.234.234 0 0 1 0 .47zM77.481 95.712H49.657a4.845 4.845 0 0 1-4.845-4.845v-28.6a4.845 4.845 0 0 1 4.845-4.846h27.825a4.845 4.845 0 0 1 4.844 4.845v28.601a4.845 4.845 0 0 1-4.844 4.845z" fill="#fff" stroke="#263238" stroke-miterlimit="10" stroke-linecap="round" stroke-linejoin="round"/><path d="M59.783 73.622v-5.755M59.783 77.076v-2.303M59.783 79.227v-1.232M60.87 68.54l-1.087-1.346-1.087 1.346M67.355 71.488v-5.755M67.355 74.941V72.64M67.355 77.092v-1.23M68.441 66.406l-1.087-1.346-1.086 1.346M63.397 67.623v-5.755M63.397 71.076v-2.302M63.397 73.228v-1.232M64.483 62.54l-1.087-1.345-1.086 1.346" stroke="#263238" stroke-miterlimit="10" stroke-linecap="round" stroke-linejoin="round"/><path d="M69.427 77.074a6.02 6.02 0 1 0-11.721-2.747 6.02 6.02 0 0 0 11.72 2.747z" fill="#92E3A9" stroke="#263238" stroke-miterlimit="10" stroke-linecap="round" stroke-linejoin="round"/><path d="M63.15 72.505v-.484h.837v.484c.727.15 1.099.708 1.099 1.593v.204h-.968v-.27c0-.465-.187-.642-.513-.642-.325 0-.512.177-.512.642 0 .466.186.792.876 1.341.838.67 1.126 1.183 1.126 1.928 0 .885-.381 1.453-1.108 1.602v.474h-.838v-.474c-.736-.15-1.108-.718-1.108-1.602v-.447h.969v.512c0 .466.205.633.53.633.327 0 .531-.167.531-.633 0-.466-.186-.8-.875-1.34-.838-.662-1.127-1.183-1.127-1.929 0-.875.363-1.434 1.08-1.592zM58.879 85.422v-.184h.318v.184c.276.057.417.269.417.605v.078h-.368v-.103c0-.177-.07-.243-.194-.243s-.195.067-.195.243c0 .177.071.3.333.51.318.254.427.448.427.731 0 .336-.144.551-.42.608v.18h-.318v-.18c-.28-.056-.421-.272-.421-.608v-.17h.368v.195c0 .177.077.24.201.24.124 0 .202-.063.202-.24s-.071-.304-.333-.51c-.318-.25-.427-.448-.427-.73 0-.334.138-.546.41-.606zM60.12 85.709c.3 0 .367-.146.428-.311h.261v2.474h-.389v-1.888h-.3v-.275zM61.249 85.991c0-.396.209-.622.59-.622.382 0 .59.226.59.622v1.287c0 .395-.208.622-.59.622-.381 0-.59-.227-.59-.622V85.99zm.389 1.311c0 .177.077.244.201.244.124 0 .202-.067.202-.244v-1.335c0-.177-.078-.244-.202-.244-.124 0-.201.067-.201.244v1.335zM62.65 85.991c0-.396.208-.622.59-.622.381 0 .59.226.59.622v1.287c0 .395-.209.622-.59.622-.382 0-.59-.227-.59-.622V85.99zm.388 1.311c0 .177.078.244.202.244.123 0 .2-.067.2-.244v-1.335c0-.177-.077-.244-.2-.244-.124 0-.202.067-.202.244v1.335zM64.05 85.991c0-.396.209-.622.59-.622s.59.226.59.622v1.287c0 .395-.209.622-.59.622-.382 0-.59-.227-.59-.622V85.99zm.389 1.311c0 .177.078.244.201.244.124 0 .202-.067.202-.244v-1.335c0-.177-.078-.244-.202-.244-.123 0-.201.067-.201.244v1.335zM65.857 87.497v.375h-.375v-.375h.375zM66.108 85.991c0-.396.21-.622.59-.622.382 0 .59.226.59.622v1.287c0 .395-.208.622-.59.622-.38 0-.59-.227-.59-.622V85.99zm.39 1.311c0 .177.077.244.2.244.125 0 .202-.067.202-.244v-1.335c0-.177-.077-.244-.201-.244-.124 0-.201.067-.201.244v1.335zM67.51 85.991c0-.396.209-.622.59-.622.382 0 .59.226.59.622v1.287c0 .395-.209.622-.59.622-.382 0-.59-.227-.59-.622V85.99zm.388 1.311c0 .177.078.244.202.244.124 0 .201-.067.201-.244v-1.335c0-.177-.077-.244-.201-.244-.124 0-.201.067-.201.244v1.335zM56.74 90.161h.388v2.474h-.389v-2.474zM57.411 90.161h.615c.389 0 .58.216.58.612v1.25c0 .397-.191.612-.58.612h-.615v-2.474zm.389.353v1.768h.22c.123 0 .197-.064.197-.24v-1.287c0-.177-.074-.24-.198-.24h-.22zM59.194 92.26v.375h-.375v-.375h.375zM60.046 90.486c-.124 0-.202.067-.202.244v.265h-.367v-.24c0-.396.197-.623.58-.623.381 0 .579.226.579.622 0 .33-.12.594-.48.98-.23.247-.294.363-.294.494 0 .018 0 .035.003.053h.736v.353h-1.124v-.303c0-.276.099-.485.388-.789.297-.315.382-.509.382-.774 0-.222-.078-.282-.201-.282zM61.118 90.472c.3 0 .368-.145.428-.31h.261v2.473h-.389v-1.887h-.3v-.276zM62.837 92.663c-.393 0-.609-.226-.609-.621v-.195c0-.236.071-.417.241-.512v-.008c-.163-.088-.24-.25-.24-.495v-.077c0-.396.215-.622.608-.622.392 0 .607.226.607.622v.078c0 .244-.081.406-.24.494v.008c.17.095.24.275.24.512v.195c0 .395-.215.621-.608.621zm-.22-1.756c0 .198.092.261.22.261.123 0 .219-.064.219-.261v-.138c0-.223-.096-.283-.22-.283-.123 0-.219.06-.219.283v.138zm.22 1.403c.123 0 .215-.06.219-.28v-.229c0-.194-.081-.28-.22-.28-.137 0-.219.086-.219.28v.23c0 .219.096.279.22.279zM63.92 90.472c.3 0 .367-.145.427-.31h.262v2.473h-.389v-1.887h-.3v-.276zM66.22 92.02c0 .417-.19.644-.593.644-.381 0-.58-.227-.58-.623v-.063h.368v.088c0 .177.078.244.202.244.138 0 .215-.067.215-.304v-.449h-.006c-.068.141-.18.216-.354.216-.286 0-.431-.202-.431-.566v-.452c0-.396.209-.622.59-.622.382 0 .59.226.59.622v1.265zm-.388-.844v-.446c0-.177-.078-.24-.201-.24-.124 0-.202.064-.202.24v.445c0 .177.078.244.202.244.123 0 .201-.067.201-.243zM66.83 91.836v.23c0 .177.078.24.202.24.124 0 .202-.063.202-.24v-.544c0-.177-.078-.244-.202-.244-.124 0-.202.067-.202.244v.074h-.367l.07-1.435h1.026v.353h-.679l-.032.59h.008c.07-.116.18-.18.335-.18.287 0 .431.202.431.565v.552c0 .395-.198.622-.58.622-.381 0-.58-.227-.58-.622v-.205h.368zM67.857 90.776c0-.417.19-.643.594-.643.381 0 .58.226.58.622v.064h-.369v-.089c0-.177-.077-.244-.201-.244-.138 0-.216.067-.216.304v.45h.007c.067-.142.18-.217.354-.217.286 0 .43.202.43.566v.452c0 .396-.208.622-.59.622-.38 0-.59-.226-.59-.622v-1.265zm.389.845v.445c0 .177.077.24.201.24.124 0 .202-.063.202-.24v-.445c0-.177-.078-.244-.202-.244-.124 0-.201.067-.201.244zM70.423 90.161v.34l-.572 2.134h-.389l.569-2.12h-.774v-.354h1.166zM63.076 88.492h.455v.134h-.153v.803h-.148v-.803h-.153v-.134zM63.584 88.717c0-.15.08-.235.223-.235.145 0 .224.085.224.235v.487c0 .15-.08.236-.224.236-.144 0-.223-.086-.223-.236v-.487zm.147.496c0 .067.03.093.076.093.047 0 .076-.025.076-.093v-.505c0-.067-.029-.093-.076-.093s-.076.025-.076.093v.505zM60.453 101.38c.556 0 .842.332.842.914v.114h-.54v-.151c0-.259-.105-.358-.286-.358-.182 0-.286.099-.286.358 0 .265.114.462.488.789.478.421.629.722.629 1.138 0 .581-.29.913-.852.913-.56 0-.851-.332-.851-.913v-.224h.54v.26c0 .26.114.353.296.353.181 0 .296-.093.296-.353 0-.265-.114-.462-.488-.789-.478-.421-.628-.722-.628-1.137 0-.582.285-.914.84-.914zM62.197 102.953h.784v.52h-.784v1.064h.987v.519h-1.558v-3.634h1.558v.519h-.986v1.012zM64.055 102.424h-.01v2.632h-.515v-3.635h.717l.576 2.176h.01v-2.176h.51v3.635h-.587l-.701-2.632zM65.752 101.422h.904c.57 0 .851.316.851.898v1.838c0 .581-.28.898-.851.898h-.904v-3.634zm.571.519v2.596h.322c.182 0 .291-.094.291-.353v-1.89c0-.26-.109-.353-.29-.353h-.323z" fill="#263238"/><path d="M38.004 94.117s2.502.773 3.377 2.947" stroke="#263238" stroke-miterlimit="10" stroke-linecap="round" stroke-linejoin="round"/><path d="M26.667 163.038c.28-4.834.463-9.772.704-13.748.5-8.243.876-13.773 1.626-19.403.751-5.629.626-14.132 1.001-17.103.375-2.97 1.494-3.598 2.377-7.126.883-3.528 1.677-10.554 3.127-11.542 1.45-.987 5.88-2.842 5.88-2.842v19.901c2.627 4.039 5.754 5.038 5.754 5.038 2.002-5.793 1.752-8.093 3.753-10.22 2.002-2.126 3.444-4.906 6.587-3.744 1.496.552 2.296 1.118 1.545 6.191-.751 5.073-2.252 6.667-2.252 6.667-.25 1.733.125 6.774.75 9.353.626 2.578-1.75 9.43-2.877 13.808-1.126 4.379-7.13 13.251-7.13 13.251s-.25 4.888.25 10.017c.046.471.103.976.17 1.502l.397 13.624-21.662-.408v-13.216z" fill="#fff"/><path opacity=".4" d="M58.575 103.742c-.12-.434-.101-.718 0-.901-.294-.272-.667-.434-1.1-.592-3.144-1.163-4.585 1.619-6.587 3.744a6.126 6.126 0 0 0-.503.605c1.812-.683 4.187-.671 5.142.654 1.201 1.66 3.649-1.341 3.048-3.51zM45 158.157l-.99 3.709s1.395-1.366 3.48-4.68c-.102-3.235.021-5.667.021-5.667s6.005-8.873 7.13-13.249c1.127-4.38 3.505-11.233 2.879-13.81-.627-2.58-1-7.621-.75-9.354 0 0 .313-.335.727-1.185-.272-.263-.588-.478-.942-.557 0 0-1.606 3.804-1.218 8.81.389 5.003-.468 5.42-2.125 11.925-1.657 6.505-4.408 13.869-5.702 15.191-1.292 1.322-1.852 7.273-2.51 8.867zM42.63 114.332s-1.973.307-2.766.775c0 0 3.852 1.006 4.102 2.078.25 1.069 1.075 2.185 2.539.876 0 0 .076-.819.227-2.008-.93-.415-3.291-1.714-5.35-4.876V91.274s-2.188.917-3.994 1.802c1.338.177 2.707.588 3.242 1.493 0 0-.405 1.666-2.252 2.495-1.423.638 0 11.377 0 11.377s-2.334.576-3.083 2.736c0 0 3.836.392 5.42 1.609 1.584 1.214 1.916 1.546 1.916 1.546zM27.37 149.291c-.195 3.219-.35 7.07-.55 10.988.494-7.447 1.99-20.228 1.99-20.228s1.337 4.727 1.438 4.224c.297-1.48-.626-9.844-.544-12.822.038-1.351-.06-4.813-.18-8.19-.108 2.321-.263 4.648-.529 6.624-.748 5.629-1.125 11.16-1.625 19.404z" fill="#92E3A9"/><path d="M26.667 177.175v-14.137c.28-4.834.463-9.772.704-13.748.5-8.243.876-13.773 1.626-19.403.751-5.629.626-14.132 1.001-17.103.375-2.97 1.494-3.598 2.377-7.126.883-3.528 1.677-10.554 3.127-11.542 1.45-.987 5.88-2.842 5.88-2.842v19.901c2.627 4.039 5.754 5.038 5.754 5.038 2.002-5.793 1.752-8.093 3.753-10.22 2.002-2.126 3.444-4.906 6.587-3.744 1.496.552 2.296 1.118 1.545 6.191-.751 5.073-2.252 6.667-2.252 6.667-.25 1.733.125 6.774.75 9.353.626 2.578-1.75 9.43-2.877 13.808-1.126 4.379-7.13 13.251-7.13 13.251s-.25 4.888.25 10.017c.046.471.103.976.17 1.502 0 0 .202 8.796 1.16 14.136" stroke="#263238" stroke-miterlimit="10" stroke-linecap="round" stroke-linejoin="round"/><path d="M47.136 116.213s-.625 2.791-1.876 3.416c-1.251.626-3.051 0-3.051 0M41.382 111.175s-1.251-2.781-5.254-.369M41.382 99.94s-.25-1.475-2.315-1.85M47.511 151.52c-2.376 3.011-1.924 5.889-2.839 7.39-.914 1.501-.788 6.88-.788 6.88M30.248 122.613v10.469c0 4.562.876 8.94.876 8.94M56.77 115.107s0-1.787-.501-2.323M55.393 109.487s-1.108-3.73-4.36-2.104M45.37 115.292c-2.416.051-4.864-1.019-6.303.283" stroke="#263238" stroke-miterlimit="10" stroke-linecap="round" stroke-linejoin="round"/><path d="M26.315 173.082h-.652v-14.838h.652c.424 0 .768.344.768.768v13.303a.767.767 0 0 1-.768.767z" fill="#263238"/><path d="M25.664 160.167s11.469-2.998 22.477.419a.84.84 0 0 1 .585.803v7.04a.422.422 0 0 1-.495.416c-2.363-.426-12.754-2.068-22 .093l-.567-8.771z" fill="#263238"/><path d="M26.162 160.035v-1.586a.947.947 0 0 0-.947-.947H23.93a.888.888 0 0 0-.78.462l-1.132 2.071v12.126l1.119 1.364c.169.206.42.325.686.325h1.392a.947.947 0 0 0 .947-.947v-12.868z" fill="#92E3A9" stroke="#263238" stroke-miterlimit="10" stroke-linecap="round" stroke-linejoin="round"/><path d="m25.348 159.253 2.619-.487a.505.505 0 0 1 .597.497v1.511l-.867.643v4.911h.867v2.562a.624.624 0 0 1-.497.611l-2.487.515a.601.601 0 0 1-.723-.589v-9.583a.6.6 0 0 1 .491-.591z" fill="#92E3A9" stroke="#263238" stroke-miterlimit="10" stroke-linecap="round" stroke-linejoin="round"/><path d="m25.445 169.347 2.133-.488a.349.349 0 0 0 .272-.341v-1.601M26.98 166.252v-5.257l.858-.653v-.985M23.514 158.462v14.044" stroke="#263238" stroke-miterlimit="10" stroke-linecap="round" stroke-linejoin="round"/><path d="M33.875 163.944a.384.384 0 0 1-.384-.384v-.839a.384.384 0 0 1 .768 0v.839a.384.384 0 0 1-.384.384zM39.784 164.1a.384.384 0 0 1-.384-.384v-.839a.384.384 0 0 1 .768 0v.839a.384.384 0 0 1-.384.384zM45.042 164.747a.384.384 0 0 1-.384-.384v-.839a.384.384 0 1 1 .768 0v.839a.383.383 0 0 1-.384.384z" fill="#fff"/><path d="M183.227 92.826s2.259.598 5.201 7.579c2.942 6.98 5.726 16.11 5.726 16.11s-6.501-2.777-10.156-2.963c-4.029-.204-9.887 1.491-9.887 1.491S171.826 91.27 156 83.343c0 0 3.178-4.085 9.016-3.224 5.839.86 18.211 12.707 18.211 12.707z" fill="#92E3A9" stroke="#263238" stroke-miterlimit="10" stroke-linejoin="round"/><path d="M161.712 84.172s10.873 11.05 13.443 22.592c0 0 2.912.876 1.699 3.873 0 0 5.181-1.493 11.261 1.268 0 0 .67-1.604 1.554-1.649 0 0-4.772-14.57-9.847-19.021-5.075-4.451-8.791-6.378-11.663-7.801-2.872-1.424-5.904-.654-5.904-.654s1.861 1.679-.543 1.392zm11.885 7.718c1.136-.862 3.521.368 5.326 2.747 1.806 2.379 2.35 5.006 1.214 5.869-1.135.862-3.52-.368-5.325-2.747-1.807-2.38-2.35-5.007-1.215-5.869z" fill="#fff" stroke="#263238" stroke-miterlimit="10"/><path d="M184.976 94.333s-5.017-6.69-10.258-9.81c-5.241-3.118-9.7-4.405-9.7-4.405s2.375.09 4.17 3.69c1.027 2.06.682 5.074.682 5.074s7.771 1.458 15.106 5.451zM5.815 10.125S19.89 5.492 28.125 0l8.753 14.416S15.941 30.719 10.45 26.429L5.815 10.125z" fill="#92E3A9" stroke="#263238" stroke-miterlimit="10" stroke-linejoin="round"/><path d="M30.871 13.557c0-.831.616-1.53 1.465-1.78l-3.89-6.448a3.185 3.185 0 0 1-1.007.163c-.967 0-1.794-.41-2.176-.998-7.269 5.082-18.418 7.69-18.418 7.69l2.23 8.753s-.343 4.806 5.664 3.605c4.65-.93 13.405-6.79 17.128-9.395-.597-.336-.996-.92-.996-1.59zM15.877 20c-2.633.603-5.085-.294-5.477-2.003-.39-1.71 1.426-3.584 4.06-4.187 2.633-.602 5.084.294 5.476 2.004.391 1.709-1.426 3.583-4.059 4.186z" fill="#fff" stroke="#263238" stroke-miterlimit="10"/><path d="m3.756 3.604 9.61 19.05s-3.26 1.716-2.917 3.775L1.182 8.237S-.019 5.32 3.756 3.604z" fill="#92E3A9" stroke="#263238" stroke-miterlimit="10" stroke-linejoin="round"/><path d="M2.005 9.852 9.14 23.86c.35-1.031 1.481-1.55 1.481-1.55L2.726 8.41l-.721 1.443z" fill="#fff" stroke="#263238" stroke-miterlimit="10"/><path d="m116.847 112.729.154 36.51 19.056-.085.061-37.25-19.271.825z" fill="#92E3A9" stroke="#263238" stroke-miterlimit="10"/><path d="M131.881 145.65c.194-1.25 1.183-2.111 2.209-1.924.099.018.191.053.283.088l-.034-27.801c-.358.305-.805.454-1.261.37-.659-.12-1.151-.692-1.319-1.416l-11.511.493c.032.23.038.47 0 .715-.152.98-.847 1.693-1.634 1.75l-.034 25.752c.276-.11.572-.154.874-.099.922.169 1.555 1.128 1.535 2.227l10.886-.048c.003-.035.001-.07.006-.107zm-6.335-9.589c-2.119-.388-3.514-2.796-3.114-5.378.4-2.583 2.443-4.362 4.562-3.974 2.119.388 3.514 2.795 3.114 5.378-.4 2.582-2.443 4.362-4.562 3.974z" fill="#fff" stroke="#263238" stroke-miterlimit="10"/><path d="m111.931 69.637 36.977-14.625-7.637-19.299-37.814 14.7 8.474 19.224z" fill="#92E3A9" stroke="#263238" stroke-miterlimit="10"/><path d="M139.372 41.337c-1.346.3-2.612-.363-2.828-1.478a1.748 1.748 0 0 1-.023-.322l-28.19 11.052c.452.242.78.636.876 1.132.139.717-.246 1.442-.915 1.9l5.062 11.482c.22-.123.462-.224.726-.282 1.054-.234 2.054.188 2.423.963l26.139-10.17a1.726 1.726 0 0 1-.447-.847c-.194-1.002.528-2.024 1.652-2.44l-4.363-11.023c-.038.01-.073.025-.112.033zm-7.218 10.228c.446 2.304-1.444 4.673-4.222 5.29-2.779.619-5.393-.748-5.84-3.052-.446-2.305 1.444-4.673 4.222-5.291 2.779-.618 5.393.75 5.84 3.053z" fill="#fff" stroke="#263238" stroke-miterlimit="10"/><path d="m45.282 131 3.659 13.417S30.646 157.969 3 154.174l1.491-14.5s10.842 2.168 20.734.135C35.118 137.776 45.282 131 45.282 131z" fill="#92E3A9" stroke="#263238" stroke-miterlimit="10"/><path d="M43.188 143.828c0-.61.501-1.133 1.226-1.394l-2.157-5.965a3.142 3.142 0 0 1-.981.158c-.66 0-1.244-.194-1.636-.491-2.966 1.585-8.69 4.36-14.359 5.535-6.125 1.27-12.749.903-15.672.641-.168.331-.812.58-1.602.609l-.72 8.132c.183-.014.372-.024.567-.024 1.492 0 2.7.454 2.7 1.013 0 .159-.106.307-.28.441 17.565.668 29.857-5.403 33.592-7.531-.418-.285-.678-.683-.678-1.124zm-17.382 4.237c-2.681.537-5.034.082-5.253-1.014-.22-1.097 1.776-2.421 4.457-2.958 2.681-.537 5.034-.083 5.253 1.014.22 1.097-1.776 2.421-4.457 2.958z" fill="#fff" stroke="#263238" stroke-miterlimit="10"/></g><defs><clipPath id="a"><path fill="#fff" d="M0 0h194v194H0z"/></clipPath></defs></svg>