<svg width="32" height="31" viewBox="0 0 32 31" fill="none" xmlns="http://www.w3.org/2000/svg">
    <path d="M15.9882 17.5968C15.9627 17.5968 15.9244 17.5968 15.8988 17.5968C15.8605 17.5968 15.8094 17.5968 15.771 17.5968C12.8705 17.5073 10.6982 15.2457 10.6982 12.4601C10.6982 9.62345 13.011 7.31067 15.8477 7.31067C18.6844 7.31067 20.9971 9.62345 20.9971 12.4601C20.9844 15.2584 18.7994 17.5073 16.0266 17.5968C16.001 17.5968 16.001 17.5968 15.9882 17.5968ZM15.8349 9.21456C14.046 9.21456 12.6021 10.6712 12.6021 12.4473C12.6021 14.1979 13.9694 15.6162 15.7071 15.6801C15.7455 15.6673 15.8732 15.6673 16.001 15.6801C17.7132 15.5907 19.0549 14.1851 19.0677 12.4473C19.0677 10.6712 17.6238 9.21456 15.8349 9.21456Z" fill="white"/>
    <path d="M15.8342 29.3779C12.3969 29.3779 9.11304 28.1002 6.57027 25.7746C6.34027 25.5702 6.23804 25.2635 6.2636 24.9696C6.42971 23.4491 7.37527 22.0307 8.94693 20.9829C12.7547 18.4529 18.9264 18.4529 22.7214 20.9829C24.293 22.0435 25.2386 23.4491 25.4047 24.9696C25.443 25.2763 25.328 25.5702 25.098 25.7746C22.5553 28.1002 19.2714 29.3779 15.8342 29.3779ZM8.26971 24.7141C10.3908 26.4902 13.0614 27.4613 15.8342 27.4613C18.6069 27.4613 21.2775 26.4902 23.3986 24.7141C23.1686 23.9346 22.5553 23.1807 21.648 22.5674C18.5047 20.4718 13.1764 20.4718 10.0075 22.5674C9.10027 23.1807 8.49971 23.9346 8.26971 24.7141Z" fill="white"/>
    <path d="M15.8338 29.3777C8.25655 29.3777 2.09766 23.2189 2.09766 15.6416C2.09766 8.06441 8.25655 1.90552 15.8338 1.90552C23.411 1.90552 29.5699 8.06441 29.5699 15.6416C29.5699 23.2189 23.411 29.3777 15.8338 29.3777ZM15.8338 3.82218C9.3171 3.82218 4.01432 9.12496 4.01432 15.6416C4.01432 22.1583 9.3171 27.4611 15.8338 27.4611C22.3504 27.4611 27.6532 22.1583 27.6532 15.6416C27.6532 9.12496 22.3504 3.82218 15.8338 3.82218Z" fill="white"/>
</svg>
